<svg xmlns="http://www.w3.org/2000/svg" xmlns:xlink="http://www.w3.org/1999/xlink" width="1000px" height="500px" viewBox="0 0 1000 500" zoomAndPan="disable" preserveAspectRatio="none">
<style type="text/css"><![CDATA[
		line
		{
			stroke: rgba(255,255,255,0.05);
			stroke-width: 1px;
		}
    ]]></style>
<g transform="translate(0.000000,99.000000) scale(0.100000,-0.100000)"
fill="#000000" stroke="none">
<path d="M70 475 l0 -345 46 0 45 0 -3 295 c-2 161 -1 291 2 287 3 -4 48 -136
100 -294 l95 -288 40 0 40 0 95 288 c52 158 97 290 100 294 3 4 4 -126 2 -287
l-3 -295 45 0 46 0 0 345 0 345 -63 0 -62 0 -93 -282 c-52 -156 -96 -290 -99
-298 -2 -8 -15 19 -27 60 -12 41 -56 175 -96 298 l-75 222 -67 0 -68 0 0 -345z
m620 -1 c0 -272 -2 -314 -15 -314 -13 0 -15 37 -15 269 0 148 -3 276 -6 285
-8 20 -23 20 -45 0 -16 -15 -17 -14 -15 8 6 49 17 67 44 70 54 7 52 19 52
-318z m-464 204 c19 -59 33 -112 29 -118 -3 -5 -1 -10 5 -10 7 0 9 -8 5 -21
-5 -14 -4 -19 4 -15 7 5 8 1 4 -10 -5 -13 -3 -15 7 -9 10 6 12 3 8 -13 -4 -12
-2 -22 4 -22 6 0 8 -9 5 -21 -3 -11 0 -22 7 -25 13 -5 19 -44 6 -44 -4 0 -32
71 -61 158 -66 201 -74 216 -99 202 -19 -10 -20 -24 -22 -293 l-3 -282 -5 260
-5 260 -5 -265 -6 -265 -2 323 -2 323 45 -2 45 -3 36 -108z m355 -11 c-10 -9
-11 -8 -5 6 3 10 9 15 12 12 3 -3 0 -11 -7 -18z m-24 -69 c-3 -8 -6 -5 -6 6
-1 11 2 17 5 13 3 -3 4 -12 1 -19z m-10 -50 c-3 -8 -6 -5 -6 6 -1 11 2 17 5
13 3 -3 4 -12 1 -19z m-34 -98 c-3 -12 -8 -19 -11 -16 -5 6 5 36 12 36 2 0 2
-9 -1 -20z m-169 -142 c1 -14 12 -42 24 -62 19 -32 24 -35 41 -24 11 6 22 25
25 41 3 17 8 28 11 26 5 -5 -19 -101 -29 -118 -4 -6 -16 -11 -28 -11 -17 0
-19 4 -14 28 5 20 4 23 -4 12 -10 -15 -11 -12 -14 23 -1 6 -4 14 -8 17 -4 3
-8 17 -10 30 -2 14 -9 35 -16 47 -7 12 -12 27 -12 34 0 24 31 -16 34 -43z
m117 11 c-5 -13 -10 -19 -10 -12 -1 15 10 45 15 40 3 -2 0 -15 -5 -28z"/>
<path d="M870 475 l0 -345 45 0 45 0 0 165 0 165 178 0 177 0 -3 -165 -3 -165
48 0 48 0 0 345 0 345 -48 0 -48 0 3 -140 3 -140 -177 0 -178 0 0 140 0 140
-45 0 -45 0 0 -345z m60 191 c0 -100 3 -128 16 -140 13 -13 44 -16 187 -16
127 1 177 4 190 14 15 11 17 31 17 140 0 105 2 126 15 126 13 0 15 -42 15
-315 0 -273 -2 -315 -15 -315 -13 0 -15 24 -15 155 l0 155 -26 10 c-14 6 -99
10 -189 10 -135 0 -166 -3 -179 -16 -13 -13 -16 -42 -16 -165 0 -146 0 -149
-21 -149 l-22 0 6 313 c4 171 7 313 7 315 0 1 7 2 15 2 13 0 15 -20 15 -124z"/>
</g>
</svg>
